<svg width="14" height="12" viewBox="0 0 14 12" fill="none" xmlns="http://www.w3.org/2000/svg">
<path d="M6.37223 5.0257C5.94637 4.77987 5.46372 4.63805 4.93375 4.63805C3.31545 4.63805 2 5.95229 2 7.56908C2 9.18588 3.31545 10.5001 4.93375 10.5001C5.45425 10.5001 5.94637 10.3488 6.37223 10.1125V10.4907H7.8675V4.61914H6.37223V5.0257ZM4.93375 9.00624C4.1388 9.00624 3.49527 8.3633 3.49527 7.56908C3.49527 6.77487 4.1388 6.13193 4.93375 6.13193C5.7287 6.13193 6.37223 6.77487 6.37223 7.56908C6.37223 8.3633 5.7287 9.00624 4.93375 9.00624Z" fill="#212121"/>
<path d="M10.8864 4.61914H9.39111V10.4812H10.8864V4.61914Z" fill="#212121"/>
<path d="M10.139 3.7208C10.6147 3.7208 11.0002 3.33559 11.0002 2.8604C11.0002 2.38521 10.6147 2 10.139 2C9.6634 2 9.27783 2.38521 9.27783 2.8604C9.27783 3.33559 9.6634 3.7208 10.139 3.7208Z" fill="#6B16EE"/>
</svg>
